<svg xmlns="http://www.w3.org/2000/svg" xmlns:xlink="http://www.w3.org/1999/xlink" width="104" height="39" viewBox="0 0 104 39"><defs><polygon id="desiree-a" points=".026 .031 27.276 .031 27.276 36.298 .026 36.298"/><polygon id="desiree-c" points="0 .105 72.869 .105 72.869 21.368 0 21.368"/></defs><g fill="none" fill-rule="evenodd"><g transform="translate(76.606 2.15)"><mask id="desiree-b" fill="#fff"><use xlink:href="#desiree-a"/></mask><path fill="#FFF" d="M10.8829939,0.267430345 C10.7296606,0.293171034 10.5783879,0.323656552 10.4261455,0.352718621 C12.7117212,0.56066069 14.9536606,1.67213655 16.4363273,3.89995172 C17.3829939,5.34641241 18.0918424,7.83365103 18.0918424,9.74296966 C18.0918424,10.2060648 17.9977818,10.7262166 17.5243273,10.7262166 L3.19632727,10.7262166 C1.73026667,10.7262166 1.25802424,10.6109172 1.25802424,12.5196428 C1.25802424,18.9985862 4.70966061,24.6099379 10.4316,24.6099379 C15.0655394,24.6099379 17.2592364,20.48692 17.8737818,20.48692 C18.1105091,20.48692 18.2529333,20.7185862 18.2529333,20.9501338 C18.2529333,21.6438276 16.2948727,23.5688041 15.9650545,23.9162441 C15.2736606,24.634611 14.5723273,25.2190552 13.8491758,25.6844041 C12.1289333,31.149971 6.80796364,34.9116703 0.525054545,35.3984897 C-0.124642424,35.4489034 -0.0995515152,35.8391655 0.370509091,36.29716 C0.370509091,36.29716 25.3588727,36.7419876 27.2051758,16.1444538 C28.0621455,6.58386345 21.0351152,-1.46763448 10.8829939,0.267430345" mask="url(#desiree-b)"/></g><path fill="#FFF" d="M79.8496121,11.4872039 L83.6791879,11.4872039 C85.1463394,11.4872039 87.7937333,11.429317 89.1654909,11.0244646 C90.2053697,10.7350301 90.9154303,10.0992232 90.9154303,8.71053076 C90.9154303,7.49561766 90.3468242,6.16481214 89.6858545,5.29733903 C88.6451273,3.96712662 87.0846424,3.50391283 85.5705818,3.50391283 C83.1597939,3.50391283 80.8435515,4.94989903 79.4242788,7.37972524 C78.9991879,8.01624386 78.2410061,9.80967007 78.2410061,10.7350301 C78.2410061,11.6603901 79.3292485,11.4872039 79.8496121,11.4872039"/><g transform="translate(0 .014)"><mask id="desiree-d" fill="#fff"><use xlink:href="#desiree-c"/></mask><path fill="#FFF" d="M10.8242182,0.582344552 C10.8242182,0.343798345 10.8477333,0.104540414 10.6039758,0.104540414 C10.4335515,0.104540414 10.2144,0.31366869 10.0922182,0.433238345 C9.50664242,0.909856276 8.58070303,1.20854317 7.89864242,1.35753076 C7.75112727,1.38766041 7.55730909,1.47662593 7.55730909,1.68563559 C7.55730909,2.07281352 7.97149091,1.98372938 8.19052121,1.98372938 C9.36082424,1.98372938 9.14167273,3.29579283 9.14167273,4.39920248 L9.14167273,7.23233903 C9.14167273,7.41133766 9.23924848,8.33563007 8.94664242,8.33563007 C8.82433939,8.33563007 8.60530909,8.21665352 8.48361212,8.15710593 C7.67900606,7.76945352 6.77706667,7.5904549 5.87524848,7.53090731 C4.3144,7.44134869 2.80276364,8.39577076 1.70603636,9.67806041 C0.609793939,10.9605873 -2.42424242e-05,12.6007556 -2.42424242e-05,14.4799446 C-2.42424242e-05,18.0582563 2.16955152,21.3684852 5.26494545,21.3684852 C7.2393697,21.3684852 8.65403636,19.3702011 9.01949091,19.3702011 C9.2633697,19.3702011 9.2633697,20.2050535 9.2633697,20.3252163 C9.28797576,20.5032659 9.2633697,21.159357 9.53124848,21.159357 C9.67755152,21.159357 9.92070303,20.9802397 10.0434909,20.8913928 L12.0179152,19.9675749 C12.3106424,19.8480052 12.408097,19.8480052 12.4328242,19.4598783 L12.4569455,19.0721073 C12.4814303,18.9525377 12.5055515,18.7144659 12.3352485,18.7144659 C12.1156121,18.7144659 11.700703,19.7578535 11.1890667,19.7578535 C10.7261576,19.7578535 10.8242182,18.5654783 10.8242182,18.236899 L10.8242182,0.582344552 Z M9.14167273,17.1935114 C9.14167273,17.7898177 9.21452121,18.2073625 8.89791515,18.6844549 C8.21524848,19.6690066 7.02082424,20.086077 6.02106667,20.086077 C3.31512727,20.086077 1.80349091,17.0143942 1.80349091,14.0317956 C1.80349091,11.0502646 3.38797576,8.3656411 6.04567273,8.06707283 C6.85003636,7.97798869 7.97149091,8.33563007 8.55658182,9.02196938 C9.18991515,9.737608 9.14167273,10.8711473 9.14167273,11.7960328 L9.14167273,17.1935114 Z M23.8415515,12.898968 C24.084703,12.898968 24.1335515,12.6301735 24.1335515,12.3916273 C24.1335515,11.4077873 23.7670061,10.125379 23.2799758,9.37961076 C22.4270061,8.09708386 21.0868848,7.53090731 19.7697939,7.53090731 C18.1119758,7.53090731 16.6009455,8.21665352 15.3825212,9.52919145 C14.0894303,10.9005652 13.6259152,12.481779 13.6259152,14.5090066 C13.6259152,18.236899 15.9912485,21.3684852 19.1845818,21.3684852 C20.6962182,21.3684852 21.8906424,20.8913928 23.0362182,19.698899 C23.2071273,19.5195446 23.9872485,18.7144659 23.9872485,18.3564687 C23.9872485,18.236899 23.9144,18.1172108 23.7917333,18.1172108 C23.4750061,18.1172108 22.5733091,20.0572521 20.1839758,20.0572521 C17.2342788,20.0572521 15.4553697,17.1633818 15.4553697,13.8237349 C15.4553697,12.8394204 15.6985212,12.898968 16.4546424,12.898968 L23.8415515,12.898968 Z M16.4787636,12.1830921 C16.2108848,12.1830921 15.6499152,12.2726508 15.6499152,11.7960328 C15.6499152,11.3182287 16.0398545,10.3939363 16.2590061,10.0658314 C16.9905212,8.8128411 18.1848242,8.06707283 19.4284606,8.06707283 C20.2085818,8.06707283 21.0128242,8.30609352 21.5493091,8.99243283 C21.8906424,9.43915834 22.1831273,10.125379 22.1831273,10.7516963 C22.1831273,11.4673349 21.8176727,11.7960328 21.2808242,11.9450204 C20.5746424,12.1530811 19.208703,12.1830921 18.4533091,12.1830921 L16.4787636,12.1830921 Z M20.4278545,3.41476938 C20.8912485,3.11726869 21.6467636,2.81881903 21.6467636,2.07281352 C21.6467636,1.65574317 21.3541576,1.32763834 21.0375515,1.32763834 C20.5746424,1.32763834 20.0865212,1.80473076 19.7451879,2.13295421 L16.5028848,5.08542317 C16.4059152,5.17510041 16.0157333,5.41305352 16.0157333,5.65219283 C16.0157333,5.77116938 16.088703,5.89073903 16.1862788,5.89073903 C16.3570667,5.89073903 16.7466424,5.62218179 16.8935515,5.56263421 L20.4278545,3.41476938 Z M25.8363394,19.4003308 C25.8363394,19.8774232 25.788097,20.2653128 26.1776727,20.4732549 C26.9825212,20.9802397 28.420097,21.3684852 29.2741576,21.3684852 C31.3462788,21.3684852 33.9059152,19.8774232 33.9059152,17.0143942 C33.9059152,12.1530811 27.8113697,13.7341763 27.8113697,10.2443556 C27.8113697,8.87298179 29.0545212,8.03753628 30.0539152,8.03753628 C32.6862788,8.03753628 32.4185212,10.8410177 33.0276121,10.8410177 C33.4417939,10.8410177 33.2719758,9.55860938 33.2719758,9.37961076 C33.2719758,8.93241076 33.4182788,8.27667559 33.0042182,8.03753628 C32.4185212,7.73944248 31.1271273,7.53090731 30.492703,7.53090731 C29.4693091,7.53090731 28.4699152,7.76945352 27.6158545,8.51534041 C26.8356121,9.20108662 26.3233697,10.125379 26.3233697,11.2883363 C26.3233697,13.7036908 28.5428848,14.4500521 30.0539152,15.0461211 C31.224097,15.5233321 32.3937939,16.1795418 32.3937939,17.9092687 C32.3937939,19.8178756 30.8586424,20.8313708 29.4204606,20.8313708 C26.1042182,20.8313708 27.1042182,16.745837 26.2270061,16.745837 C25.9585212,16.745837 25.9339152,17.1633818 25.9091879,17.4020466 L25.8363394,19.4003308 Z M38.9216727,8.00811834 C38.9216727,7.79946455 38.9467636,7.53090731 38.7019152,7.53090731 C38.5068848,7.53090731 38.3851879,7.76945352 38.264097,7.91855972 C37.8735515,8.48461766 36.8254303,9.26110869 36.2397333,9.46905076 C36.0205818,9.55860938 35.6792485,9.61815697 35.6792485,9.97627283 C35.6792485,10.1552714 35.8256727,10.214819 35.9724606,10.214819 L36.2890667,10.214819 C36.484703,10.214819 36.8495515,10.2443556 36.9959758,10.4534839 C37.2637333,10.7815887 37.2402182,11.9450204 37.2402182,12.3622094 L37.2402182,17.9686977 C37.2402182,19.2506314 37.4588848,20.2653128 36.1428848,20.4143004 C35.8744,20.4441928 35.4602182,20.3841708 35.4602182,20.8313708 C35.4602182,21.0703914 35.6306424,21.1305321 35.8015515,21.1305321 C36.5570667,21.1305321 37.3371879,21.0103694 38.1174303,21.0103694 C38.848703,21.0103694 39.6284606,21.1305321 40.4090667,21.1305321 C40.5799758,21.1305321 40.7010667,21.0403804 40.7010667,20.8012411 C40.7010667,20.4143004 40.2627636,20.4441928 40.0184,20.4143004 C38.7019152,20.2653128 38.9216727,19.2506314 38.9216727,17.9686977 L38.9216727,8.00811834 Z M38.0685818,4.93584248 C38.7753697,4.93584248 39.1413091,4.25009628 39.1413091,3.44489903 C39.1413091,2.72902317 38.7518545,2.01338455 38.1174303,2.01338455 C37.4588848,2.01338455 37.0210667,2.72902317 37.0210667,3.5049211 C37.0210667,4.28010731 37.4100364,4.93584248 38.0685818,4.93584248 L38.0685818,4.93584248 Z M43.3752485,17.9686977 C43.3752485,19.2506314 43.5948848,20.2653128 42.2779152,20.4143004 C42.0099152,20.4441928 41.5958545,20.3841708 41.5958545,20.8313708 C41.5958545,21.0703914 41.7666424,21.1305321 41.9371879,21.1305321 C42.6925818,21.1305321 43.4739152,21.0103694 44.2534303,21.0103694 C44.9843394,21.0103694 45.7644606,21.1305321 46.544097,21.1305321 C46.7156121,21.1305321 46.8373091,21.0403804 46.8373091,20.8012411 C46.8373091,20.4143004 46.3985212,20.4441928 46.1556121,20.4143004 C44.8386424,20.2653128 45.0577939,19.2506314 45.0577939,17.9686977 L45.0577939,13.2569652 C45.0577939,12.0635225 45.0325818,11.2883363 45.6187636,10.2743666 C45.9108848,9.82740386 46.3249455,9.20108662 46.8619152,9.20108662 C47.5444606,9.20108662 47.592703,10.3343887 48.4216727,10.3343887 C49.0068848,10.3343887 49.4456727,9.88671421 49.4456727,9.14094593 C49.4456727,8.24666455 48.7871273,7.70943145 48.0557333,7.70943145 C46.3742788,7.70943145 45.4231273,10.0952494 45.1793697,10.0952494 C45.0090667,10.0952494 45.0577939,9.58862041 45.0577939,9.46905076 L45.0577939,8.00811834 C45.0577939,7.79946455 45.0817939,7.53090731 44.8386424,7.53090731 C44.6436121,7.53090731 44.5214303,7.76945352 44.3997333,7.91855972 C44.0096727,8.48461766 42.9610667,9.26110869 42.3765818,9.46905076 C42.1568242,9.55860938 41.8154909,9.61815697 41.8154909,9.97627283 C41.8154909,10.1552714 41.9616727,10.214819 42.1085818,10.214819 L42.4251879,10.214819 C42.6192485,10.214819 42.9851879,10.2443556 43.1319758,10.4534839 C43.3999758,10.7815887 43.3752485,11.9450204 43.3752485,12.3622094 L43.3752485,17.9686977 Z M60.3904,12.898968 C60.6336727,12.898968 60.6830061,12.6301735 60.6830061,12.3916273 C60.6830061,11.4077873 60.3169455,10.125379 59.8284606,9.37961076 C58.9769455,8.09708386 57.6357333,7.53090731 56.3197333,7.53090731 C54.6608242,7.53090731 53.1508848,8.21665352 51.9313697,9.52919145 C50.6393697,10.9005652 50.1759758,12.481779 50.1759758,14.5090066 C50.1759758,18.236899 52.5413091,21.3684852 55.7335515,21.3684852 C57.2456727,21.3684852 58.4388848,20.8913928 59.5862788,19.698899 C59.7559758,19.5195446 60.5362182,18.7144659 60.5362182,18.3564687 C60.5362182,18.236899 60.4626424,18.1172108 60.3410667,18.1172108 C60.0244606,18.1172108 59.1226424,20.0572521 56.7339152,20.0572521 C53.7842182,20.0572521 52.004097,17.1633818 52.004097,13.8237349 C52.004097,12.8394204 52.248097,12.898968 53.004097,12.898968 L60.3904,12.898968 Z M53.028097,12.1830921 C52.7591273,12.1830921 52.1992485,12.2726508 52.1992485,11.7960328 C52.1992485,11.3182287 52.5893091,10.3939363 52.8095515,10.0658314 C53.5392485,8.8128411 54.7352485,8.06707283 55.9788848,8.06707283 C56.7569455,8.06707283 57.5624,8.30609352 58.0992485,8.99243283 C58.4388848,9.43915834 58.7325818,10.125379 58.7325818,10.7516963 C58.7325818,11.4673349 58.3666424,11.7960328 57.8307636,11.9450204 C57.1239758,12.1530811 55.7576727,12.1830921 55.0026424,12.1830921 L53.028097,12.1830921 Z M56.9771879,3.41476938 C57.440703,3.11726869 58.196703,2.81881903 58.196703,2.07281352 C58.196703,1.65574317 57.9051879,1.32763834 57.5874909,1.32763834 C57.1239758,1.32763834 56.6364606,1.80473076 56.2945212,2.13295421 L53.0522182,5.08542317 C52.9553697,5.17510041 52.564097,5.41305352 52.564097,5.65219283 C52.564097,5.77116938 52.6380364,5.89073903 52.736703,5.89073903 C52.9060364,5.89073903 53.2965818,5.62218179 53.4434909,5.56263421 L56.9771879,3.41476938 Z M72.5762182,12.898968 C72.8193697,12.898968 72.868703,12.6301735 72.868703,12.3916273 C72.868703,11.4077873 72.5026424,10.125379 72.0139152,9.37961076 C71.1626424,8.09708386 69.8214303,7.53090731 68.5043394,7.53090731 C66.8474909,7.53090731 65.3365818,8.21665352 64.1171879,9.52919145 C62.8242182,10.9005652 62.3616727,12.481779 62.3616727,14.5090066 C62.3616727,18.236899 64.7250667,21.3684852 67.9191273,21.3684852 C69.4313697,21.3684852 70.6256727,20.8913928 71.7718545,19.698899 C71.9416727,19.5195446 72.7217939,18.7144659 72.7217939,18.3564687 C72.7217939,18.236899 72.6494303,18.1172108 72.5268848,18.1172108 C72.2111273,18.1172108 71.3084606,20.0572521 68.9197333,20.0572521 C65.9700364,20.0572521 64.1904,17.1633818 64.1904,13.8237349 C64.1904,12.8394204 64.4336727,12.898968 65.1897939,12.898968 L72.5762182,12.898968 Z M65.2137939,12.1830921 C64.9454303,12.1830921 64.3854303,12.2726508 64.3854303,11.7960328 C64.3854303,11.3182287 64.7756121,10.3939363 64.9948848,10.0658314 C65.7255515,8.8128411 66.9187636,8.06707283 68.1625212,8.06707283 C68.9437333,8.06707283 69.748097,8.30609352 70.2838545,8.99243283 C70.6256727,9.43915834 70.9171879,10.125379 70.9171879,10.7516963 C70.9171879,11.4673349 70.5534303,11.7960328 70.0164606,11.9450204 C69.3097939,12.1530811 67.9444606,12.1830921 67.1883394,12.1830921 L65.2137939,12.1830921 Z" mask="url(#desiree-d)"/></g></g></svg>