<svg xmlns="http://www.w3.org/2000/svg" xmlns:xlink="http://www.w3.org/1999/xlink" width="108" height="16" viewBox="0 0 108 16"><defs><polygon id="euromobil-a" points=".02 .022 11.917 .022 11.917 11.102 .02 11.102"/></defs><g fill="none" fill-rule="evenodd"><polygon fill="#FFF" points="0 .093 0 14.967 13.262 14.967 13.262 11.155 4.847 11.155 4.847 9.301 12.271 9.301 12.271 5.759 4.847 5.759 4.847 3.905 13.02 3.905 13.02 .093"/><g transform="translate(14.516 .03)"><g transform="translate(0 4.105)"><mask id="euromobil-b" fill="#fff"><use xlink:href="#euromobil-a"/></mask><path fill="#FFF" d="M11.9166387,10.8325213 L7.70850968,10.8325213 L7.70850968,9.4577603 L7.66476774,9.4577603 C6.84954194,10.5405152 5.68167097,11.1018573 3.94157419,11.1018573 C1.89267097,11.1018573 0.0201870968,9.9155475 0.0201870968,7.43722738 L0.0201870968,0.0215785976 L4.38228387,0.0215785976 L4.38228387,5.6876164 C4.38228387,6.93680543 4.53634839,7.81217067 5.81396129,7.81217067 C6.5631871,7.81217067 7.55454194,7.45700543 7.55454194,5.72931823 L7.55454194,0.0215785976 L11.9166387,0.0215785976 L11.9166387,10.8325213 Z" mask="url(#euromobil-b)"/></g><path fill="#FFF" d="M13.1264129 4.12642866L17.3120903 4.12642866 17.3120903 5.85560854 17.3562194 5.85560854C18.0608323 4.5644378 18.9861871 3.85643963 20.5727032 3.85643963 21.0130258 3.85643963 21.431671 3.9180128 21.8503161 4.02296707L21.8503161 7.66707256C21.4096065 7.5224689 21.0130258 7.39708354 20.1318968 7.39708354 18.4135742 7.39708354 17.4881226 8.35519939 17.4881226 10.6676451L17.4881226 14.9374646 13.1264129 14.9374646 13.1264129 4.12642866zM28.5213097 15.2067073C24.2255032 15.2067073 22.286729 12.520811 22.286729 9.5216378 22.286729 6.52171829 24.2255032 3.85643963 28.5213097 3.85643963 32.8175032 3.85643963 34.7558903 6.52171829 34.7558903 9.5216378 34.7558903 12.520811 32.8175032 15.2067073 28.5213097 15.2067073M28.5213097 6.8556128C26.8692774 6.8556128 26.6489226 8.37497744 26.6489226 9.5216378 26.6489226 10.6676451 26.8692774 12.2082805 28.5213097 12.2082805 30.173729 12.2082805 30.3940839 10.6676451 30.3940839 9.5216378 30.3940839 8.37497744 30.173729 6.8556128 28.5213097 6.8556128M35.8322032 4.12642866L40.0398484 4.12642866 40.0398484 5.5628561 40.084171 5.5628561C40.9652032 4.31422683 42.2433 3.85643963 43.8293323 3.85643963 45.062429 3.85643963 46.3846548 4.46022988 46.9139129 5.54307805 47.0900419 5.41759939 47.9706871 3.85643963 50.8123645 3.85643963 53.7432677 3.85643963 54.7341387 5.77267134 54.7341387 7.5224689L54.7341387 14.9374646 50.372429 14.9374646 50.372429 9.08446829C50.372429 8.06393963 50.2622032 7.14687256 48.9407516 7.14687256 47.8387839 7.14687256 47.4640742 7.95898537 47.4640742 9.08446829L47.4640742 14.9374646 43.1022677 14.9374646 43.1022677 9.08446829C43.1022677 8.06393963 42.9920419 7.14687256 41.6705903 7.14687256 40.5687194 7.14687256 40.1939129 7.95898537 40.1939129 9.08446829L40.1939129 14.9374646 35.8322032 14.9374646 35.8322032 4.12642866zM62.0229 15.2067073C57.7263194 15.2067073 55.7878355 12.520811 55.7878355 9.5216378 55.7878355 6.52171829 57.7263194 3.85643963 62.0229 3.85643963 66.3187065 3.85643963 68.2570935 6.52171829 68.2570935 9.5216378 68.2570935 12.520811 66.3187065 15.2067073 62.0229 15.2067073M62.0229 6.8556128C60.3700935 6.8556128 60.1497387 8.37497744 60.1497387 9.5216378 60.1497387 10.6676451 60.3700935 12.2082805 62.0229 12.2082805 63.6748355 12.2082805 63.8953839 10.6676451 63.8953839 9.5216378 63.8953839 8.37497744 63.6748355 6.8556128 62.0229 6.8556128M69.3550548.0641853659L73.7167645.0641853659 73.7167645 5.3141378 73.7609903 5.3141378C74.4221516 4.39781707 75.5899258 3.85643963 76.8897968 3.85643963 80.7222484 3.85643963 81.7582161 6.93920305 81.7582161 9.47984268 81.7582161 12.1870098 80.1938613 15.2067073 76.9557 15.2067073 74.8186355 15.2067073 74.1574742 14.437136 73.6073129 13.7496622L73.5625065 13.7496622 73.5625065 14.9374646 69.3550548 14.9374646 69.3550548.0641853659zM75.4790226 6.8556128C73.9154419 6.8556128 73.5625065 8.25099146 73.5625065 9.5216378 73.5625065 10.8129018 73.9154419 12.2082805 75.4790226 12.2082805 77.0441516 12.2082805 77.3956355 10.8129018 77.3956355 9.5216378 77.3956355 8.25099146 77.0441516 6.8556128 75.4790226 6.8556128L75.4790226 6.8556128z"/></g><path fill="#FFF" d="M97.4398065,2.98900427 L101.802387,2.98900427 L101.802387,0.0932926829 L97.4398065,0.0932926829 L97.4398065,2.98900427 Z M97.4398065,14.966572 L101.802387,14.966572 L101.802387,4.15553598 L97.4398065,4.15553598 L97.4398065,14.966572 Z"/><polygon fill="#FFF" points="103.585 14.967 107.947 14.967 107.947 .093 103.585 .093"/></g></svg>