<svg xmlns="http://www.w3.org/2000/svg" xmlns:xlink="http://www.w3.org/1999/xlink" width="176" height="24" viewBox="0 0 176 24"><defs><polygon id="gruppo-a" points=".027 .099 11.401 .099 11.401 18.062 .027 18.062"/><polygon id="gruppo-c" points=".035 .099 5.993 .099 5.993 17.734 .035 17.734"/></defs><g fill="none" fill-rule="evenodd"><path fill="#FFF" d="M8.65386532 12.3982187L11.144317 12.3982187C11.2208645 15.2514588 11.0411701 17.5764223 7.52353451 17.5764223 3.46666801 17.5764223 2.92743711 14.3183092 2.92743711 9.97185708 2.92743711 8.58234438 2.97856725 4.97056062 3.98033384 3.12482866 4.49399966 2.19038461 5.75186029 1.10449072 7.39585693 1.10449072 10.2458452 1.10449072 12.0940668 2.89887644 12.6075849 5.39945275L13.1977982 5.39945275 13.1977982 1.079321 12.7872793 1.079321 11.8886596 2.03979774C10.7849283 1.0542951 9.32062603.522710485 7.52353451.522710485 3.9037864.522710485.0000147774979 4.23804969.0000147774979 9.23934614.0000147774979 14.0901995 2.67030865 18.1582026 7.421422 18.1582026 12.63315 18.1582026 13.8666277 15.2024138 14.0452877 12.3982187L15.6117024 12.3982187 15.6117024 11.7902619 8.65386532 11.7902619 8.65386532 12.3982187zM23.1092581 7.52186472C21.6971204 7.52186472 20.6697887 8.75963993 20.2072531 9.89702389L20.1562707 9.89702389 20.1562707 7.52186472C19.2322338 7.74896756 18.2304672 7.77413729 17.2808652 7.77413729L16.484358 7.77413729 16.484358 8.3557737 18.2304672 8.3557737 18.2304672 17.198258 16.484358 17.198258 16.484358 17.7787438 22.2106385 17.7787438 22.2106385 17.198258 20.2338526 17.198258 20.2338526 12.3976002C20.2338526 11.3870717 20.5158072 10.402432 20.875196 9.66891426 21.4398442 8.53268092 22.3139332 8.17901031 22.338316 8.17901031 22.4158979 8.17901031 22.570175 8.17901031 22.570175 8.32959718 22.570175 8.43013226 22.467028 8.65924868 22.467028 8.8611818 22.467028 9.36543928 23.0062589 9.87084737 23.4687946 9.87084737 24.0078777 9.87084737 24.6756729 9.56751622 24.6756729 8.93640332 24.6756729 7.97707719 23.9824605 7.52186472 23.1092581 7.52186472M35.6136961 7.52179281C34.6886247 7.74875182 33.6880403 7.77392155 32.7382905 7.77392155L32.1470428 7.77392155 32.1470428 8.35570179 33.6103107 8.35570179 33.6103107 14.0141438C33.6103107 15.8325487 32.326885 17.32461 30.5042284 17.32461 29.734173 17.32461 28.9378136 16.9959653 28.9378136 15.4548589L28.9378136 7.52179281C28.0127422 7.74875182 27.0120101 7.77392155 26.0613736 7.77392155L25.5477078 7.77392155 25.5477078 8.35570179 26.9344282 8.35570179 26.9344282 15.681818C26.9344282 16.8945673 27.4479463 18.1323425 29.9649975 18.1323425 31.633377 18.1323425 33.0202452 17.2994403 33.6880403 15.9089208L33.7388749 15.9089208 33.7388749 17.9554353C34.6630596 17.8540372 35.6136961 17.7786719 36.5378808 17.7786719L37.0769639 17.7786719 37.0769639 17.1980422 35.6136961 17.1980422 35.6136961 7.52179281zM44.0354955 7.52200855C42.7519221 7.52200855 41.5704611 8.22834297 40.902666 9.46712497L40.8516836 9.49128791 40.8516836 7.52200855C40.3890002 7.62254363 39.9019338 7.69891577 39.3884158 7.72394166 38.900315 7.77413729 38.4122143 7.77413729 37.9241135 7.77413729L37.3848826 7.77413729 37.3848826 8.35591753 38.900315 8.35591753 38.900315 22.9080463 37.3848826 22.9080463 37.3848826 23.4886759 42.6487751 23.4886759 42.6487751 22.9080463 40.902666 22.9080463 40.902666 16.4135378 40.9546828 16.4135378C41.5960262 17.501733 42.5468104 18.1075323 43.933383 18.1075323 47.117195 18.1075323 48.8111395 15.5054141 48.8111395 13.0287131 48.8111395 9.03808901 46.0122814 7.52200855 44.0354955 7.52200855M43.7525065 17.602268C43.0081639 17.602268 41.8533024 16.9701484 41.4163318 16.1362394 41.0058129 15.3798532 40.902666 14.9488036 40.902666 13.2818486 40.902666 12.5484747 40.8771009 11.7909379 41.0058129 10.9580357 41.3907668 8.5065044 43.3421353 8.1278079 43.8302361 8.1278079 45.7304746 8.1278079 46.4749649 9.31653809 46.4749649 12.9533477 46.4749649 17.5510656 45.0626794 17.602268 43.7525065 17.602268M55.8464551 7.52200855C54.5630294 7.52200855 53.3815684 8.22834297 52.7137733 9.46712497L52.6626432 9.49128791 52.6626432 7.52200855C52.2012897 7.62254363 51.7120067 7.69891577 51.1995231 7.72394166 50.7114223 7.77413729 50.2233216 7.77413729 49.735073 7.77413729L49.1959899 7.77413729 49.1959899 8.35591753 50.7114223 8.35591753 50.7114223 22.9080463 49.1959899 22.9080463 49.1959899 23.4886759 54.4598825 23.4886759 54.4598825 22.9080463 52.7137733 22.9080463 52.7137733 16.4135378 52.7657901 16.4135378C53.4069857 17.501733 54.3577699 18.1075323 55.7444903 18.1075323 58.9281545 18.1075323 60.6222469 15.5054141 60.6222469 13.0287131 60.6222469 9.03808901 57.8244232 7.52200855 55.8464551 7.52200855M55.5636138 17.602268C54.8192712 17.602268 53.6644097 16.9701484 53.2272914 16.1362394 52.8169202 15.3798532 52.7137733 14.9488036 52.7137733 13.2818486 52.7137733 12.5484747 52.6882082 11.7909379 52.8169202 10.9580357 53.2018741 8.5065044 55.1532427 8.1278079 55.6413434 8.1278079 57.5415819 8.1278079 58.2859244 9.31653809 58.2859244 12.9533477 58.2859244 17.5510656 56.8737867 17.602268 55.5636138 17.602268M67.1702892 7.52123188C64.474578 7.52123188 62.2149508 9.74465356 62.2149508 12.8019842 62.2149508 15.8581642 64.474578 18.1067556 67.1702892 18.1067556 69.8660003 18.1067556 72.1256275 15.8581642 72.1256275 12.8019842 72.1256275 9.74465356 69.8660003 7.52123188 67.1702892 7.52123188M67.1702892 17.6023543C64.5766905 17.6023543 64.5511254 14.923864 64.5511254 12.8019842 64.5511254 10.7052741 64.5766905 8.02663998 67.1702892 8.02663998 69.7628534 8.02663998 69.7894529 10.7052741 69.7894529 12.8019842 69.7894529 14.923864 69.7628534 17.6023543 67.1702892 17.6023543M85.3489317 17.1980279L82.2416672 17.1980279 82.2416672 9.39052271C84.7842835 9.41669922 85.8625975 9.74505627 86.0156924 12.4477095L86.5803406 12.4477095 86.5803406 6.0570442 86.0156924 6.0570442C85.657338 8.73438391 84.8354136 8.75955363 82.2416672 8.75955363L82.2416672 1.48334544 85.5797562 1.48334544C87.9159308 1.48334544 89.5077629 2.01493005 89.9448813 5.0200515L90.508495 5.0200515 90.508495.901709027 77.4914405.901709027 77.4914405 1.48334544 79.7512154 1.48334544 79.7512154 17.1980279 77.4914405 17.1980279 77.4914405 17.7786575 90.8689182 17.7786575 91.2028897 13.0543718 90.5350945 13.0543718C89.8683338 16.793011 88.7369686 17.1980279 85.3489317 17.1980279M101.987759 7.52179281C101.06254 7.74875182 100.060921 7.77392155 99.1113189 7.77392155L98.5200712 7.77392155 98.5200712 8.35570179 99.9834868 8.35570179 99.9834868 14.0141438C99.9834868 15.8325487 98.6997656 17.32461 96.877109 17.32461 96.1072013 17.32461 95.3106942 16.9959653 95.3106942 15.4548589L95.3106942 7.52179281C94.3866573 7.74875182 93.3859251 7.77392155 92.4352887 7.77392155L91.9216228 7.77392155 91.9216228 8.35570179 93.308491 8.35570179 93.308491 15.681818C93.308491 16.8945673 93.8209746 18.1323425 96.3381736 18.1323425 98.0065531 18.1323425 99.3931258 17.2994403 100.060921 15.9089208L100.112051 15.9089208 100.112051 17.9554353C101.037122 17.8540372 101.987759 17.7786719 102.910761 17.7786719L103.451027 17.7786719 103.451027 17.1980422 101.987759 17.1980422 101.987759 7.52179281zM110.871429 7.52186472C109.458257 7.52186472 108.431812 8.75963993 107.969276 9.89702389L107.918442 9.89702389 107.918442 7.52186472C106.994405 7.74896756 105.99249 7.77413729 105.043036 7.77413729L104.246381 7.77413729 104.246381 8.3557737 105.99249 8.3557737 105.99249 17.198258 104.246381 17.198258 104.246381 17.7787438 109.972662 17.7787438 109.972662 17.198258 107.994841 17.198258 107.994841 12.3976002C107.994841 11.3870717 108.277683 10.402432 108.637367 9.66891426 109.20172 8.53268092 110.074922 8.17901031 110.101521 8.17901031 110.178069 8.17901031 110.331312 8.17901031 110.331312 8.32959718 110.331312 8.43013226 110.228903 8.65924868 110.228903 8.8611818 110.228903 9.36543928 110.768282 9.87084737 111.230966 9.87084737 111.769901 9.87084737 112.437844 9.56751622 112.437844 8.93640332 112.437844 7.97707719 111.744336 7.52186472 110.871429 7.52186472M117.957402 7.52123188C115.261543 7.52123188 113.001916 9.74465356 113.001916 12.8019842 113.001916 15.8581642 115.261543 18.1067556 117.957402 18.1067556 120.652965 18.1067556 122.913922 15.8581642 122.913922 12.8019842 122.913922 9.74465356 120.652965 7.52123188 117.957402 7.52123188M117.957402 17.6023543C115.36469 17.6023543 115.337943 14.923864 115.337943 12.8019842 115.337943 10.7052741 115.36469 8.02663998 117.957402 8.02663998 120.550853 8.02663998 120.577304 10.7052741 120.577304 12.8019842 120.577304 14.923864 120.550853 17.6023543 117.957402 17.6023543M139.80775 10.4782576C139.80775 7.87513261 137.984946 7.52146201 137.035492 7.52146201 135.365634 7.52146201 134.313033 8.50710847 133.491109 9.89662117L133.440126 9.89662117C133.285997 8.38039688 132.156553 7.52146201 130.692103 7.52146201 128.818612 7.52146201 128.125104 8.50710847 127.226484 9.9217909L127.174615 9.9217909 127.174615 7.52146201C126.250578 7.74856485 125.248811 7.77359075 124.299062 7.77359075L123.887656 7.77359075 123.887656 8.35537098 125.172264 8.35537098 125.172264 17.1977114 123.887656 17.1977114 123.887656 17.7784849 128.612318 17.7784849 128.612318 17.1977114 127.174615 17.1977114 127.174615 12.423374C127.174615 10.5024205 128.459223 8.25397294 130.05002 8.25397294 130.873127 8.25397294 131.488758 8.83575318 131.488758 10.0231889L131.488758 17.1977114 130.127602 17.1977114 130.127602 17.7784849 134.85123 17.7784849 134.85123 17.1977114 133.491109 17.1977114 133.491109 11.89294C133.491109 10.5024205 134.775717 8.25397294 136.367549 8.25397294 137.188291 8.25397294 137.804069 8.83575318 137.804069 10.0231889L137.804069 17.1977114 136.367549 17.1977114 136.367549 17.7784849 141.091176 17.7784849 141.091176 17.1977114 139.80775 17.1977114 139.80775 10.4782576zM146.355024 7.52123188C143.658278 7.52123188 141.398503 9.74465356 141.398503 12.8019842 141.398503 15.8581642 143.658278 18.1067556 146.355024 18.1067556 149.050735 18.1067556 151.310362 15.8581642 151.310362 12.8019842 151.310362 9.74465356 149.050735 7.52123188 146.355024 7.52123188M146.355024 17.6023543C143.761425 17.6023543 143.735713 14.923864 143.735713 12.8019842 143.735713 10.7052741 143.761425 8.02663998 146.355024 8.02663998 148.948475 8.02663998 148.974188 10.7052741 148.974188 12.8019842 148.974188 14.923864 148.948475 17.6023543 146.355024 17.6023543"/><g transform="translate(151.617 .045)"><mask id="gruppo-b" fill="#fff"><use xlink:href="#gruppo-a"/></mask><path fill="#FFF" d="M6.44588547,7.47635786 C5.23900722,7.47635786 4.03301562,8.33543656 3.54491486,9.24471089 L3.49289807,9.24471089 L3.49289807,0.0988954488 C2.56871335,0.276809454 1.56694677,0.327005079 0.617492527,0.327005079 L0.0272792611,0.327005079 L0.0272792611,0.908785316 L1.4905471,0.908785316 L1.4905471,17.1275814 L0.0272792611,17.1275814 L0.0272792611,17.7333807 C1.15657565,17.708211 2.26148917,17.8599485 3.38960336,17.9363206 L3.38960336,16.1931373 L3.44295013,16.1931373 C4.05858069,17.2028029 5.1877293,18.0618816 6.47248497,18.0618816 C9.21917851,18.0618816 11.4012238,15.88995 11.4012238,12.7571102 C11.4012238,10.4824861 10.0145034,7.47635786 6.44588547,7.47635786 M6.47248497,17.5314476 C5.70154291,17.5314476 3.41635063,17.1025555 3.41635063,13.91952 C3.41635063,13.2865374 3.467333,11.1394879 3.54491486,10.4583232 C3.59501058,9.69977953 4.77647154,7.98176595 6.47248497,7.98176595 C8.96190227,7.98176595 9.0650492,10.7607914 9.0650492,12.6565751 C9.0650492,14.6770569 9.03948413,17.5314476 6.47248497,17.5314476" mask="url(#gruppo-b)"/></g><path fill="#FFF" d="M165.843145 3.6567297C166.587487 3.6567297 167.152283 3.09997536 167.152283 2.31741262 167.152283 1.66041086 166.458923 1.10365653 165.843145 1.10365653 165.200767 1.10365653 164.609667 1.66041086 164.609667 2.31741262 164.609667 3.04977973 165.097768 3.6567297 165.843145 3.6567297M166.869191 7.52179281C165.946188 7.74875182 164.94457 7.77392155 163.993933 7.77392155L163.146444 7.77392155 163.146444 8.35570179 164.86684 8.35570179 164.86684 17.1980422 163.146444 17.1980422 163.146444 17.7786719 168.384771 17.7786719 168.384771 17.1980422 166.869191 17.1980422 166.869191 7.52179281z"/><g transform="translate(169.941 .045)"><mask id="gruppo-d" fill="#fff"><use xlink:href="#gruppo-c"/></mask><path fill="#FFF" d="M4.01568161,17.1531538 L4.01568161,0.0992981644 C3.09164467,0.276205381 2.08987809,0.326401006 1.1401283,0.326401006 L0.0352147775,0.326401006 L0.0352147775,0.908181242 L2.01318287,0.908181242 L2.01318287,17.1531538 L0.0352147775,17.1531538 L0.0352147775,17.7337835 L5.99261528,17.7337835 L5.99261528,17.1531538 L4.01568161,17.1531538 Z" mask="url(#gruppo-d)"/></g></g></svg>