<?xml version="1.0" encoding="utf-8"?>
<!-- Generator: Adobe Illustrator 27.2.0, SVG Export Plug-In . SVG Version: 6.00 Build 0)  -->
<!DOCTYPE svg PUBLIC "-//W3C//DTD SVG 1.1//EN" "http://www.w3.org/Graphics/SVG/1.1/DTD/svg11.dtd" [
	<!ENTITY ns_extend "http://ns.adobe.com/Extensibility/1.0/">
	<!ENTITY ns_ai "http://ns.adobe.com/AdobeIllustrator/10.0/">
	<!ENTITY ns_graphs "http://ns.adobe.com/Graphs/1.0/">
	<!ENTITY ns_vars "http://ns.adobe.com/Variables/1.0/">
	<!ENTITY ns_imrep "http://ns.adobe.com/ImageReplacement/1.0/">
	<!ENTITY ns_sfw "http://ns.adobe.com/SaveForWeb/1.0/">
	<!ENTITY ns_custom "http://ns.adobe.com/GenericCustomNamespace/1.0/">
	<!ENTITY ns_adobe_xpath "http://ns.adobe.com/XPath/1.0/">
]>
<svg version="1.1" id="Livello_1" xmlns:x="&ns_extend;" xmlns:i="&ns_ai;" xmlns:graph="&ns_graphs;"
	 xmlns="http://www.w3.org/2000/svg" xmlns:xlink="http://www.w3.org/1999/xlink" x="0px" y="0px" width="99.5px" height="48.8px"
	 viewBox="0 0 99.5 48.8" style="enable-background:new 0 0 99.5 48.8;" xml:space="preserve">
<style type="text/css">
	.st0{fill-rule:evenodd;clip-rule:evenodd;fill:#FFFFFF;}
	.st1{filter:url(#Adobe_OpacityMaskFilter);}
	.st2{mask:url(#gruppo-b_00000086667016823505652900000001349462583961509795_);fill-rule:evenodd;clip-rule:evenodd;fill:#FFFFFF;}
	.st3{filter:url(#Adobe_OpacityMaskFilter_00000170260837810579597540000015268182314520738433_);}
	.st4{mask:url(#gruppo-d_00000113338076042242248870000005167091917730319777_);fill-rule:evenodd;clip-rule:evenodd;fill:#FFFFFF;}
</style>
<metadata>
	<sfw  xmlns="&ns_sfw;">
		<slices></slices>
		<sliceSourceBounds  bottomLeftOrigin="true" height="42.6" width="98.9" x="77" y="5.9"></sliceSourceBounds>
	</sfw>
</metadata>
<g>
	<path class="st0" d="M9.1,12.2h2.5c0.1,2.9-0.1,5.2-3.6,5.2c-4.1,0-4.6-3.3-4.6-7.6c0-1.4,0.1-5,1.1-6.8c0.5-0.9,1.8-2,3.4-2
		c2.8,0,4.7,1.8,5.2,4.3h0.6V0.9h-0.4l-0.9,1c-1.1-1-2.6-1.5-4.4-1.5c-3.6,0-7.5,3.7-7.5,8.7c0,4.9,2.7,8.9,7.4,8.9
		c5.2,0,6.4-3,6.6-5.8h1.6v-0.6h-7V12.2z M23.6,7.4c-1.4,0-2.4,1.2-2.9,2.4h-0.1V7.4c-0.9,0.2-1.9,0.3-2.9,0.3H17v0.6h1.7V17H17v0.6
		h5.7V17h-2v-4.8c0-1,0.3-2,0.6-2.7C21.9,8.4,22.8,8,22.8,8c0.1,0,0.2,0,0.2,0.2c0,0.1-0.1,0.3-0.1,0.5c0,0.5,0.5,1,1,1
		c0.5,0,1.2-0.3,1.2-0.9C25.2,7.8,24.5,7.4,23.6,7.4 M36.1,7.4c-0.9,0.2-1.9,0.3-2.9,0.3h-0.6v0.6h1.5v5.7c0,1.8-1.3,3.3-3.1,3.3
		c-0.8,0-1.6-0.3-1.6-1.9V7.4c-0.9,0.2-1.9,0.3-2.9,0.3H26v0.6h1.4v7.3c0,1.2,0.5,2.5,3,2.5c1.7,0,3.1-0.8,3.7-2.2h0.1v2
		c0.9-0.1,1.9-0.2,2.8-0.2h0.5V17h-1.5V7.4z M44.5,7.4c-1.3,0-2.5,0.7-3.1,1.9l-0.1,0v-2c-0.5,0.1-0.9,0.2-1.5,0.2
		c-0.5,0.1-1,0.1-1.5,0.1h-0.5v0.6h1.5v14.6h-1.5v0.6h5.3v-0.6h-1.7v-6.5h0.1c0.6,1.1,1.6,1.7,3,1.7c3.2,0,4.9-2.6,4.9-5.1
		C49.3,8.9,46.5,7.4,44.5,7.4 M44.2,17.4c-0.7,0-1.9-0.6-2.3-1.5c-0.4-0.8-0.5-1.2-0.5-2.9c0-0.7,0-1.5,0.1-2.3
		C41.9,8.3,43.8,8,44.3,8c1.9,0,2.6,1.2,2.6,4.8C47,17.4,45.6,17.4,44.2,17.4 M56.3,7.4c-1.3,0-2.5,0.7-3.1,1.9l-0.1,0v-2
		c-0.5,0.1-1,0.2-1.5,0.2c-0.5,0.1-1,0.1-1.5,0.1h-0.5v0.6h1.5v14.6h-1.5v0.6H55v-0.6h-1.7v-6.5h0.1c0.6,1.1,1.6,1.7,3,1.7
		c3.2,0,4.9-2.6,4.9-5.1C61.1,8.9,58.3,7.4,56.3,7.4 M56.1,17.4c-0.7,0-1.9-0.6-2.3-1.5c-0.4-0.8-0.5-1.2-0.5-2.9
		c0-0.7,0-1.5,0.1-2.3C53.7,8.3,55.6,8,56.1,8c1.9,0,2.6,1.2,2.6,4.8C58.8,17.4,57.4,17.4,56.1,17.4 M67.7,7.4c-2.7,0-5,2.2-5,5.3
		c0,3.1,2.3,5.3,5,5.3s5-2.2,5-5.3C72.6,9.6,70.4,7.4,67.7,7.4 M67.7,17.4c-2.6,0-2.6-2.7-2.6-4.8c0-2.1,0-4.8,2.6-4.8
		c2.6,0,2.6,2.7,2.6,4.8C70.3,14.8,70.3,17.4,67.7,17.4 M8.9,42H5.7v-7.8c2.5,0,3.6,0.4,3.8,3.1h0.6v-6.4H9.5
		c-0.4,2.7-1.2,2.7-3.8,2.7v-7.3h3.3c2.3,0,3.9,0.5,4.4,3.5H14v-4.1H1v0.6h2.3V42H1v0.6h13.4l0.3-4.7H14C13.4,41.6,12.2,42,8.9,42
		 M25.5,32.3c-0.9,0.2-1.9,0.3-2.9,0.3H22v0.6h1.5v5.7c0,1.8-1.3,3.3-3.1,3.3c-0.8,0-1.6-0.3-1.6-1.9v-7.9c-0.9,0.2-1.9,0.3-2.9,0.3
		h-0.5v0.6h1.4v7.3c0,1.2,0.5,2.5,3,2.5c1.7,0,3.1-0.8,3.7-2.2h0.1v2c0.9-0.1,1.9-0.2,2.8-0.2H27V42h-1.5V32.3z M34.4,32.3
		c-1.4,0-2.4,1.2-2.9,2.4h-0.1v-2.4c-0.9,0.2-1.9,0.3-2.9,0.3h-0.8v0.6h1.7V42h-1.7v0.6h5.7V42h-2v-4.8c0-1,0.3-2,0.6-2.7
		c0.6-1.1,1.4-1.5,1.5-1.5c0.1,0,0.2,0,0.2,0.2c0,0.1-0.1,0.3-0.1,0.5c0,0.5,0.5,1,1,1c0.5,0,1.2-0.3,1.2-0.9
		C35.9,32.8,35.2,32.3,34.4,32.3 M41.5,32.3c-2.7,0-5,2.2-5,5.3c0,3.1,2.3,5.3,5,5.3c2.7,0,5-2.2,5-5.3
		C46.4,34.6,44.2,32.3,41.5,32.3 M41.5,42.4c-2.6,0-2.6-2.7-2.6-4.8c0-2.1,0-4.8,2.6-4.8c2.6,0,2.6,2.7,2.6,4.8
		C44.1,39.7,44.1,42.4,41.5,42.4 M63.3,35.3c0-2.6-1.8-3-2.8-3c-1.7,0-2.7,1-3.5,2.4h-0.1c-0.2-1.5-1.3-2.4-2.7-2.4
		c-1.9,0-2.6,1-3.5,2.4h-0.1v-2.4c-0.9,0.2-1.9,0.3-2.9,0.3h-0.4v0.6h1.3V42h-1.3v0.6h4.7V42h-1.4v-4.8c0-1.9,1.3-4.2,2.9-4.2
		c0.8,0,1.4,0.6,1.4,1.8V42h-1.4v0.6h4.7V42H57v-5.3c0-1.4,1.3-3.6,2.9-3.6c0.8,0,1.4,0.6,1.4,1.8V42h-1.4v0.6h4.7V42h-1.3V35.3z
		 M69.9,32.3c-2.7,0-5,2.2-5,5.3c0,3.1,2.3,5.3,5,5.3c2.7,0,5-2.2,5-5.3C74.8,34.6,72.6,32.3,69.9,32.3 M69.9,42.4
		c-2.6,0-2.6-2.7-2.6-4.8c0-2.1,0-4.8,2.6-4.8c2.6,0,2.6,2.7,2.6,4.8C72.5,39.7,72.4,42.4,69.9,42.4"/>
	<g transform="translate(151.617 .045)">
		<defs>
			<filter id="Adobe_OpacityMaskFilter" filterUnits="userSpaceOnUse" x="-76.5" y="24.9" width="11.4" height="18">
				<feColorMatrix  type="matrix" values="1 0 0 0 0  0 1 0 0 0  0 0 1 0 0  0 0 0 1 0"/>
			</filter>
		</defs>
		
			<mask maskUnits="userSpaceOnUse" x="-76.5" y="24.9" width="11.4" height="18" id="gruppo-b_00000086667016823505652900000001349462583961509795_">
			<g class="st1">
				<polygon id="gruppo-a_00000168821531037440967050000013880075234282290076_" class="st0" points="-76.5,24.9 -65.1,24.9 
					-65.1,42.9 -76.5,42.9 				"/>
			</g>
		</mask>
		<path class="st2" d="M-70.1,32.3c-1.2,0-2.4,0.9-2.9,1.8H-73v-9.1c-0.9,0.2-1.9,0.2-2.9,0.2h-0.6v0.6h1.5v16.2h-1.5v0.6
			c1.1,0,2.2,0.1,3.4,0.2V41h0.1c0.6,1,1.7,1.9,3,1.9c2.7,0,4.9-2.2,4.9-5.3C-65.1,35.3-66.5,32.3-70.1,32.3 M-70,42.3
			c-0.8,0-3.1-0.4-3.1-3.6c0-0.6,0.1-2.8,0.1-3.5c0.1-0.8,1.2-2.5,2.9-2.5c2.5,0,2.6,2.8,2.6,4.7C-67.4,39.5-67.5,42.3-70,42.3"/>
	</g>
	<path class="st0" d="M89.3,28.5c0.7,0,1.3-0.6,1.3-1.3c0-0.7-0.7-1.2-1.3-1.2c-0.6,0-1.2,0.6-1.2,1.2
		C88.1,27.9,88.6,28.5,89.3,28.5 M90.4,32.3c-0.9,0.2-1.9,0.3-2.9,0.3h-0.8v0.6h1.7V42h-1.7v0.6h5.2V42h-1.5V32.3z"/>
	<g transform="translate(169.941 .045)">
		<defs>
			
				<filter id="Adobe_OpacityMaskFilter_00000173877211948528456810000004351834921359968425_" filterUnits="userSpaceOnUse" x="-76.5" y="24.9" width="6" height="17.6">
				<feColorMatrix  type="matrix" values="1 0 0 0 0  0 1 0 0 0  0 0 1 0 0  0 0 0 1 0"/>
			</filter>
		</defs>
		
			<mask maskUnits="userSpaceOnUse" x="-76.5" y="24.9" width="6" height="17.6" id="gruppo-d_00000113338076042242248870000005167091917730319777_">
			<g style="filter:url(#Adobe_OpacityMaskFilter_00000173877211948528456810000004351834921359968425_);">
				<polygon id="gruppo-c_00000103950772870126251240000005106703007571296396_" class="st0" points="-76.5,24.9 -70.5,24.9 
					-70.5,42.5 -76.5,42.5 				"/>
			</g>
		</mask>
		<path class="st4" d="M-72.5,42V24.9c-0.9,0.2-1.9,0.2-2.9,0.2h-1.1v0.6h2V42h-2v0.6h6V42H-72.5z"/>
	</g>
</g>
</svg>
