<svg xmlns="http://www.w3.org/2000/svg" xmlns:xlink="http://www.w3.org/1999/xlink" width="176" height="24" viewBox="0 0 176 24"><defs><polygon id="gruppo-euromobil-black-a" points="0 0 11.374 0 11.374 17.963 0 17.963"/><polygon id="gruppo-euromobil-black-c" points="0 0 5.958 0 5.958 17.635 0 17.635"/></defs><g fill="none" fill-rule="evenodd" transform="translate(0 .144)"><path fill="#000" fill-rule="nonzero" d="M8.65385054,12.2542187 L11.1443022,12.2542187 C11.2208497,15.1074588 11.0411553,17.4324223 7.52351973,17.4324223 C3.46665323,17.4324223 2.92742233,14.1743092 2.92742233,9.82785708 C2.92742233,8.43834438 2.97855247,4.82656062 3.98031906,2.98082866 C4.49398488,2.04638461 5.75184551,0.96049072 7.39584215,0.96049072 C10.2458304,0.96049072 12.094052,2.75487644 12.6075701,5.25545275 L13.1977834,5.25545275 L13.1977834,0.935321 L12.7872645,0.935321 L11.8886448,1.89579774 C10.7849135,0.9102951 9.32061125,0.378710485 7.52351973,0.378710485 C3.90377162,0.378710485 0,4.09404969 0,9.09534614 C0,13.9461995 2.67029387,18.0142026 7.42140722,18.0142026 C12.6331352,18.0142026 13.8666129,15.0584138 14.0452729,12.2542187 L15.6116876,12.2542187 L15.6116876,11.6462619 L8.65385054,11.6462619 L8.65385054,12.2542187 Z M23.1092433,7.37786472 C21.6971056,7.37786472 20.6697739,8.61563993 20.2072383,9.75302389 L20.1562559,9.75302389 L20.1562559,7.37786472 C19.232219,7.60496756 18.2304524,7.63013729 17.2808504,7.63013729 L16.4843432,7.63013729 L16.4843432,8.2117737 L18.2304524,8.2117737 L18.2304524,17.054258 L16.4843432,17.054258 L16.4843432,17.6347438 L22.2106237,17.6347438 L22.2106237,17.054258 L20.2338378,17.054258 L20.2338378,12.2536002 C20.2338378,11.2430717 20.5157924,10.258432 20.8751812,9.52491426 C21.4398294,8.38868092 22.3139184,8.03501031 22.3383012,8.03501031 C22.4158831,8.03501031 22.5701602,8.03501031 22.5701602,8.18559718 C22.5701602,8.28613226 22.4670132,8.51524868 22.4670132,8.7171818 C22.4670132,9.22143928 23.0062441,9.72684737 23.4687798,9.72684737 C24.0078629,9.72684737 24.6756581,9.42351622 24.6756581,8.79240332 C24.6756581,7.83307719 23.9824457,7.37786472 23.1092433,7.37786472 M35.6136813,7.37779281 C34.6886099,7.60475182 33.6880255,7.62992155 32.7382757,7.62992155 L32.147028,7.62992155 L32.147028,8.21170179 L33.6102959,8.21170179 L33.6102959,13.8701438 C33.6102959,15.6885487 32.3268702,17.18061 30.5042136,17.18061 C29.7341582,17.18061 28.9377988,16.8519653 28.9377988,15.3108589 L28.9377988,7.37779281 C28.0127274,7.60475182 27.0119953,7.62992155 26.0613588,7.62992155 L25.547693,7.62992155 L25.547693,8.21170179 L26.9344134,8.21170179 L26.9344134,15.537818 C26.9344134,16.7505673 27.4479315,17.9883425 29.9649827,17.9883425 C31.6333622,17.9883425 33.0202304,17.1554403 33.6880255,15.7649208 L33.7388601,15.7649208 L33.7388601,17.8114353 C34.6630448,17.7100372 35.6136813,17.6346719 36.537866,17.6346719 L37.0769491,17.6346719 L37.0769491,17.0540422 L35.6136813,17.0540422 L35.6136813,7.37779281 Z M44.0354807,7.37800855 C42.7519073,7.37800855 41.5704463,8.08434297 40.9026512,9.32312497 L40.8516688,9.34728791 L40.8516688,7.37800855 C40.3889854,7.47854363 39.901919,7.55491577 39.388401,7.57994166 C38.9003002,7.63013729 38.4121995,7.63013729 37.9240987,7.63013729 L37.3848678,7.63013729 L37.3848678,8.21191753 L38.9003002,8.21191753 L38.9003002,22.7640463 L37.3848678,22.7640463 L37.3848678,23.3446759 L42.6487603,23.3446759 L42.6487603,22.7640463 L40.9026512,22.7640463 L40.9026512,16.2695378 L40.954668,16.2695378 C41.5960114,17.357733 42.5467956,17.9635323 43.9333682,17.9635323 C47.1171802,17.9635323 48.8111247,15.3614141 48.8111247,12.8847131 C48.8111247,8.89408901 46.0122666,7.37800855 44.0354807,7.37800855 M43.7524917,17.458268 C43.0081491,17.458268 41.8532876,16.8261484 41.416317,15.9922394 C41.0057981,15.2358532 40.9026512,14.8048036 40.9026512,13.1378486 C40.9026512,12.4044747 40.8770861,11.6469379 41.0057981,10.8140357 C41.390752,8.3625044 43.3421205,7.9838079 43.8302213,7.9838079 C45.7304598,7.9838079 46.4749501,9.17253809 46.4749501,12.8093477 C46.4749501,17.4070656 45.0626646,17.458268 43.7524917,17.458268 M55.8464403,7.37800855 C54.5630146,7.37800855 53.3815536,8.08434297 52.7137585,9.32312497 L52.6626284,9.34728791 L52.6626284,7.37800855 C52.2012749,7.47854363 51.7119919,7.55491577 51.1995083,7.57994166 C50.7114075,7.63013729 50.2233068,7.63013729 49.7350582,7.63013729 L49.1959751,7.63013729 L49.1959751,8.21191753 L50.7114075,8.21191753 L50.7114075,22.7640463 L49.1959751,22.7640463 L49.1959751,23.3446759 L54.4598677,23.3446759 L54.4598677,22.7640463 L52.7137585,22.7640463 L52.7137585,16.2695378 L52.7657753,16.2695378 C53.4069709,17.357733 54.3577551,17.9635323 55.7444755,17.9635323 C58.9281397,17.9635323 60.6222321,15.3614141 60.6222321,12.8847131 C60.6222321,8.89408901 57.8244084,7.37800855 55.8464403,7.37800855 M55.563599,17.458268 C54.8192564,17.458268 53.6643949,16.8261484 53.2272766,15.9922394 C52.8169054,15.2358532 52.7137585,14.8048036 52.7137585,13.1378486 C52.7137585,12.4044747 52.6881934,11.6469379 52.8169054,10.8140357 C53.2018593,8.3625044 55.1532279,7.9838079 55.6413286,7.9838079 C57.5415671,7.9838079 58.2859096,9.17253809 58.2859096,12.8093477 C58.2859096,17.4070656 56.8737719,17.458268 55.563599,17.458268 M67.1702744,7.37723188 C64.4745632,7.37723188 62.214936,9.60065356 62.214936,12.6579842 C62.214936,15.7141642 64.4745632,17.9627556 67.1702744,17.9627556 C69.8659855,17.9627556 72.1256127,15.7141642 72.1256127,12.6579842 C72.1256127,9.60065356 69.8659855,7.37723188 67.1702744,7.37723188 M67.1702744,17.4583543 C64.5766757,17.4583543 64.5511106,14.779864 64.5511106,12.6579842 C64.5511106,10.5612741 64.5766757,7.88263998 67.1702744,7.88263998 C69.7628386,7.88263998 69.7894381,10.5612741 69.7894381,12.6579842 C69.7894381,14.779864 69.7628386,17.4583543 67.1702744,17.4583543 M85.3489169,17.0540279 L82.2416524,17.0540279 L82.2416524,9.24652271 C84.7842687,9.27269922 85.8625827,9.60105627 86.0156776,12.3037095 L86.5803258,12.3037095 L86.5803258,5.9130442 L86.0156776,5.9130442 C85.6573232,8.59038391 84.8353988,8.61555363 82.2416524,8.61555363 L82.2416524,1.33934544 L85.5797414,1.33934544 C87.915916,1.33934544 89.5077481,1.87093005 89.9448665,4.8760515 L90.5084802,4.8760515 L90.5084802,0.757709027 L77.4914257,0.757709027 L77.4914257,1.33934544 L79.7512006,1.33934544 L79.7512006,17.0540279 L77.4914257,17.0540279 L77.4914257,17.6346575 L90.8689034,17.6346575 L91.2028749,12.9103718 L90.5350797,12.9103718 C89.868319,16.649011 88.7369538,17.0540279 85.3489169,17.0540279 M101.987744,7.37779281 C101.062525,7.60475182 100.060906,7.62992155 99.1113041,7.62992155 L98.5200564,7.62992155 L98.5200564,8.21170179 L99.983472,8.21170179 L99.983472,13.8701438 C99.983472,15.6885487 98.6997508,17.18061 96.8770942,17.18061 C96.1071865,17.18061 95.3106794,16.8519653 95.3106794,15.3108589 L95.3106794,7.37779281 C94.3866425,7.60475182 93.3859103,7.62992155 92.4352739,7.62992155 L91.921608,7.62992155 L91.921608,8.21170179 L93.3084762,8.21170179 L93.3084762,15.537818 C93.3084762,16.7505673 93.8209598,17.9883425 96.3381588,17.9883425 C98.0065383,17.9883425 99.393111,17.1554403 100.060906,15.7649208 L100.112036,15.7649208 L100.112036,17.8114353 C101.037107,17.7100372 101.987744,17.6346719 102.910746,17.6346719 L103.451012,17.6346719 L103.451012,17.0540422 L101.987744,17.0540422 L101.987744,7.37779281 Z M110.871414,7.37786472 C109.458242,7.37786472 108.431797,8.61563993 107.969261,9.75302389 L107.918427,9.75302389 L107.918427,7.37786472 C106.99439,7.60496756 105.992475,7.63013729 105.043021,7.63013729 L104.246366,7.63013729 L104.246366,8.2117737 L105.992475,8.2117737 L105.992475,17.054258 L104.246366,17.054258 L104.246366,17.6347438 L109.972647,17.6347438 L109.972647,17.054258 L107.994826,17.054258 L107.994826,12.2536002 C107.994826,11.2430717 108.277668,10.258432 108.637352,9.52491426 C109.201705,8.38868092 110.074907,8.03501031 110.101506,8.03501031 C110.178054,8.03501031 110.331297,8.03501031 110.331297,8.18559718 C110.331297,8.28613226 110.228888,8.51524868 110.228888,8.7171818 C110.228888,9.22143928 110.768267,9.72684737 111.230951,9.72684737 C111.769886,9.72684737 112.437829,9.42351622 112.437829,8.79240332 C112.437829,7.83307719 111.744321,7.37786472 110.871414,7.37786472 M117.957387,7.37723188 C115.261528,7.37723188 113.001901,9.60065356 113.001901,12.6579842 C113.001901,15.7141642 115.261528,17.9627556 117.957387,17.9627556 C120.65295,17.9627556 122.913907,15.7141642 122.913907,12.6579842 C122.913907,9.60065356 120.65295,7.37723188 117.957387,7.37723188 M117.957387,17.4583543 C115.364675,17.4583543 115.337928,14.779864 115.337928,12.6579842 C115.337928,10.5612741 115.364675,7.88263998 117.957387,7.88263998 C120.550838,7.88263998 120.577289,10.5612741 120.577289,12.6579842 C120.577289,14.779864 120.550838,17.4583543 117.957387,17.4583543 M139.807735,10.3342576 C139.807735,7.73113261 137.984931,7.37746201 137.035477,7.37746201 C135.365619,7.37746201 134.313018,8.36310847 133.491094,9.75262117 L133.440111,9.75262117 C133.285982,8.23639688 132.156538,7.37746201 130.692088,7.37746201 C128.818597,7.37746201 128.125089,8.36310847 127.226469,9.7777909 L127.1746,9.7777909 L127.1746,7.37746201 C126.250563,7.60456485 125.248796,7.62959075 124.299047,7.62959075 L123.887641,7.62959075 L123.887641,8.21137098 L125.172249,8.21137098 L125.172249,17.0537114 L123.887641,17.0537114 L123.887641,17.6344849 L128.612303,17.6344849 L128.612303,17.0537114 L127.1746,17.0537114 L127.1746,12.279374 C127.1746,10.3584205 128.459208,8.10997294 130.050005,8.10997294 C130.873112,8.10997294 131.488743,8.69175318 131.488743,9.8791889 L131.488743,17.0537114 L130.127587,17.0537114 L130.127587,17.6344849 L134.851215,17.6344849 L134.851215,17.0537114 L133.491094,17.0537114 L133.491094,11.74894 C133.491094,10.3584205 134.775702,8.10997294 136.367534,8.10997294 C137.188276,8.10997294 137.804054,8.69175318 137.804054,9.8791889 L137.804054,17.0537114 L136.367534,17.0537114 L136.367534,17.6344849 L141.091161,17.6344849 L141.091161,17.0537114 L139.807735,17.0537114 L139.807735,10.3342576 Z M146.355009,7.37723188 C143.658263,7.37723188 141.398488,9.60065356 141.398488,12.6579842 C141.398488,15.7141642 143.658263,17.9627556 146.355009,17.9627556 C149.05072,17.9627556 151.310347,15.7141642 151.310347,12.6579842 C151.310347,9.60065356 149.05072,7.37723188 146.355009,7.37723188 M146.355009,17.4583543 C143.76141,17.4583543 143.735698,14.779864 143.735698,12.6579842 C143.735698,10.5612741 143.76141,7.88263998 146.355009,7.88263998 C148.94846,7.88263998 148.974173,10.5612741 148.974173,12.6579842 C148.974173,14.779864 148.94846,17.4583543 146.355009,17.4583543"/><g transform="translate(151.644)"><mask id="gruppo-euromobil-black-b" fill="#fff"><use xlink:href="#gruppo-euromobil-black-a"/></mask><path fill="#000" fill-rule="nonzero" d="M6.41888547,7.37735786 C5.21200722,7.37735786 4.00601562,8.23643656 3.51791486,9.14571089 L3.46589807,9.14571089 L3.46589807,-0.0001045512 C2.54171335,0.177809454 1.53994677,0.228005079 0.590492527,0.228005079 L0.0002792611,0.228005079 L0.0002792611,0.809785316 L1.4635471,0.809785316 L1.4635471,17.0285814 L0.0002792611,17.0285814 L0.0002792611,17.6343807 C1.12957565,17.609211 2.23448917,17.7609485 3.36260336,17.8373206 L3.36260336,16.0941373 L3.41595013,16.0941373 C4.03158069,17.1038029 5.1607293,17.9628816 6.44548497,17.9628816 C9.19217851,17.9628816 11.3742238,15.79095 11.3742238,12.6581102 C11.3742238,10.3834861 9.9875034,7.37735786 6.41888547,7.37735786 M6.44548497,17.4324476 C5.67454291,17.4324476 3.38935063,17.0035555 3.38935063,13.82052 C3.38935063,13.1875374 3.440333,11.0404879 3.51791486,10.3593232 C3.56801058,9.60077953 4.74947154,7.88276595 6.44548497,7.88276595 C8.93490227,7.88276595 9.0380492,10.6617914 9.0380492,12.5575751 C9.0380492,14.5780569 9.01248413,17.4324476 6.44548497,17.4324476" mask="url(#gruppo-euromobil-black-b)"/></g><path fill="#000" fill-rule="nonzero" d="M165.84313,3.5127297 C166.587472,3.5127297 167.152268,2.95597536 167.152268,2.17341262 C167.152268,1.51641086 166.458908,0.95965653 165.84313,0.95965653 C165.200752,0.95965653 164.609652,1.51641086 164.609652,2.17341262 C164.609652,2.90577973 165.097753,3.5127297 165.84313,3.5127297 M166.869176,7.37779281 C165.946173,7.60475182 164.944555,7.62992155 163.993918,7.62992155 L163.146429,7.62992155 L163.146429,8.21170179 L164.866825,8.21170179 L164.866825,17.0540422 L163.146429,17.0540422 L163.146429,17.6346719 L168.384756,17.6346719 L168.384756,17.0540422 L166.869176,17.0540422 L166.869176,7.37779281 Z"/><g transform="translate(169.976)"><mask id="gruppo-euromobil-black-d" fill="#fff"><use xlink:href="#gruppo-euromobil-black-c"/></mask><path fill="#000" fill-rule="nonzero" d="M3.98068161,17.0541538 L3.98068161,0.0002981644 C3.05664467,0.177205381 2.05487809,0.227401006 1.1051283,0.227401006 L0.0002147775,0.227401006 L0.0002147775,0.809181242 L1.97818287,0.809181242 L1.97818287,17.0541538 L0.0002147775,17.0541538 L0.0002147775,17.6347835 L5.95761528,17.6347835 L5.95761528,17.0541538 L3.98068161,17.0541538 Z" mask="url(#gruppo-euromobil-black-d)"/></g></g></svg>