<svg xmlns="http://www.w3.org/2000/svg" xmlns:xlink="http://www.w3.org/1999/xlink" width="394" height="27" viewBox="0 0 394 27"><defs><polygon id="a" points="0 27 394 27 394 0 0 0"/></defs><g fill="none" fill-rule="evenodd"><polygon fill="#FEFEFE" points="0 1 0 23 10 23 10 19.845 3.356 19.845 3.356 1"/><polygon fill="#FEFEFE" points="18 23 21 23 21 1 18 1"/><polygon fill="#FEFEFE" points="38.599 1 36.016 16.357 35.954 16.357 33.402 1 30 1 34.567 23 37.401 23 42 1"/><polygon fill="#FEFEFE" points="50 1 50 23 60 23 60 19.848 53.353 19.848 53.353 13.391 59.145 13.391 59.145 10.425 53.353 10.425 53.353 3.966 60 3.966 60 1"/><polygon fill="#FEFEFE" points="89.608 1 87.031 9.746 86.968 9.746 84.393 1 81 1 85.399 13.7 85.399 23 88.604 23 88.604 13.7 93 1"/><path fill="#FEFEFE" d="M100.547801 5.44680893C100.547801 1.81643672 103.301003.000357320099 105.898819.000357320099 108.495742.000357320099 111.248945 1.81643672 111.248945 5.44680893L111.248945 17.2160397C111.248945 20.8481985 108.495742 22.6624913 105.898819 22.6624913 103.301003 22.6624913 100.547801 20.8481985 100.547801 17.2160397L100.547801 5.44680893ZM103.740373 17.2160397C103.740373 18.7498362 104.741456 19.4689429 105.898819 19.4689429 107.055289 19.4689429 108.058159 18.7498362 108.058159 17.2160397L108.058159 5.44680893C108.058159 3.91301241 107.055289 3.19390571 105.898819 3.19390571 104.741456 3.19390571 103.740373 3.91301241 103.740373 5.44680893L103.740373 17.2160397ZM130.96109 17.4667891C130.96109 20.3780546 128.644577 22.6631166 125.7985 22.6631166 122.949743 22.6631166 120.63591 20.3780546 120.63591 17.4667891L120.63591.187682382 123.827589.187682382 123.827589 17.1532407C123.827589 18.7183027 124.672393 19.4695682 125.7985 19.4695682 126.924607 19.4695682 127.768518 18.7183027 127.768518 17.1532407L127.768518.187682382 130.96109.187682382 130.96109 17.4667891ZM140.53568.188039702 145.667014.188039702C149.452556.188039702 151.300229 2.41146402 151.300229 6.72967742 151.300229 9.29702233 150.581343 11.1747395 148.547027 12.3029777L151.98786 22.4749876 148.608646 22.4749876 145.636651 12.95866 143.725573 12.95866 143.725573 22.4749876 140.53568 22.4749876 140.53568.188039702ZM143.725573 10.1411911 145.541097 10.1411911C147.764735 10.1411911 148.107657 8.88967742 148.107657 6.6680397 148.107657 4.41424318 147.732586 3.19220844 145.386604 3.19220844L143.725573 3.19220844 143.725573 10.1411911Z"/><polygon fill="#FEFEFE" points="173.339 .188 176.531 .188 176.531 19.281 182.852 19.281 182.852 22.475 173.339 22.475"/><mask id="b" fill="#fff"><use xlink:href="#a"/></mask><polygon fill="#FEFEFE" points="191.58 22.475 194.773 22.475 194.773 .188 191.58 .188" mask="url(#b)"/><polygon fill="#FEFEFE" points="204.44 .188 213.954 .188 213.954 3.192 207.633 3.192 207.633 9.954 213.139 9.954 213.139 12.959 207.633 12.959 207.633 22.475 204.44 22.475" mask="url(#b)"/><polygon fill="#FEFEFE" points="222.589 .188 232.102 .188 232.102 3.192 225.779 3.192 225.779 9.736 231.288 9.736 231.288 12.74 225.779 12.74 225.779 19.281 232.102 19.281 232.102 22.475 222.589 22.475" mask="url(#b)"/><path fill="#FEFEFE" d="M238.861093,19.0577568 L242.277815,19.0577568 L242.277815,22.167335 C242.277815,24.4765161 241.260657,26.3247543 238.893242,27.0000893 L238.893242,25.4618263 C240.277435,24.9990968 240.738237,23.4608337 240.676618,22.4755236 L238.861093,22.4755236 L238.861093,19.0577568 Z" mask="url(#b)"/><polygon fill="#FEFEFE" points="280.661 22.475 277.656 22.475 275.216 8.013 275.153 8.013 272.743 22.475 269.739 22.475 266.423 .188 269.801 .188 271.399 14.336 271.462 14.336 273.962 .188 276.406 .188 279.003 14.68 279.066 14.68 280.598 .188 283.976 .188" mask="url(#b)"/><polygon fill="#FEFEFE" points="292.642 22.475 295.835 22.475 295.835 .188 292.642 .188" mask="url(#b)"/><polygon fill="#FEFEFE" points="307.6 3.193 303.907 3.193 303.907 .189 314.482 .189 314.482 3.193 310.792 3.193 310.792 22.475 307.6 22.475" mask="url(#b)"/><polygon fill="#FEFEFE" points="322.461 .188 325.654 .188 325.654 9.736 329.595 9.736 329.595 .188 332.786 .188 332.786 22.475 329.595 22.475 329.595 12.551 325.654 12.551 325.654 22.475 322.461 22.475" mask="url(#b)"/><path fill="#FEFEFE" d="M365.591289 17.4667891C365.591289 20.3780546 363.274776 22.6631166 360.428699 22.6631166 357.579942 22.6631166 355.266109 20.3780546 355.266109 17.4667891L355.266109.187682382 358.457788.187682382 358.457788 17.1532407C358.457788 18.7183027 359.302592 19.4695682 360.428699 19.4695682 361.554806 19.4695682 362.398717 18.7183027 362.398717 17.1532407L362.398717.187682382 365.591289.187682382 365.591289 17.4667891ZM385.49213 6.60479404 382.299558 6.60479404 382.299558 5.88568734C382.299558 4.41352854 381.674439 3.1932804 380.047344 3.1932804 378.295225 3.1932804 377.888004 4.60201489 377.888004 6.0723871 377.888004 7.79466998 378.045177 8.38871464 379.701743 9.04707692L382.143279 10.0163077C384.959886 11.0820149 385.49213 12.8659355 385.49213 16.1211216 385.49213 19.8765558 384.115083 22.661866 379.985725 22.661866 376.886921 22.661866 374.539153 20.3785906 374.539153 17.3726352L374.539153 16.1845459 377.730832 16.1845459 377.730832 17.1859355C377.730832 18.341866 378.356844 19.4709975 379.985725 19.4709975 382.143279 19.4709975 382.299558 18.1873251 382.299558 16.1523871 382.299558 13.7744218 382.018255 13.3965558 380.454564 12.772139L378.170201 11.8323871C375.415212 10.7059355 374.695432 8.88985608 374.695432 6.10365261 374.695432 2.72429777 376.51185-.000267990074 380.172368-.000267990074 383.36494-.000267990074 385.49213 2.56707692 385.49213 5.03883871L385.49213 6.60479404Z" mask="url(#b)"/><polygon fill="#FEFEFE" points="390.809 22.476 393.999 22.476 393.999 19.283 390.809 19.283" mask="url(#b)"/></g></svg>