<svg xmlns="http://www.w3.org/2000/svg" xmlns:xlink="http://www.w3.org/1999/xlink" width="62" height="24" viewBox="0 0 62 24"><defs><polygon id="zalf-a" points="0 .062 22.456 .062 22.456 23.837 0 23.837"/><polygon id="zalf-c" points=".032 .065 6.454 .065 6.454 16.066 .032 16.066"/></defs><g fill="none" fill-rule="evenodd"><g transform="translate(0 .016)"><mask id="zalf-b" fill="#fff"><use xlink:href="#zalf-a"/></mask><path fill="#FFF" d="M18.8005873,5.62955442 C21.0392751,7.45145151 22.3315188,10.1529919 22.4478868,12.840679 C22.5638614,15.5310748 21.4744553,18.3537345 19.6783437,20.3411741 C17.7748335,22.4477983 14.7720036,23.7982202 12.0241761,23.835446 C8.27388426,23.886912 5.75690457,22.5547547 3.8331736,20.8265799 C1.66262284,18.8777591 0.0729680203,15.7686698 0.00420152284,12.7324069 C-0.0757375635,9.23983764 0.98337665,6.58295276 3.30877005,4.0354235 C5.26420914,1.89126399 8.7927802,0.137085354 12.1683183,0.0646459639 C15.4454274,-0.00400119279 18.4011279,1.07732696 20.7642878,2.8893952 L18.8005873,5.62955442 Z M18.888001,3.22249257 C17.1572726,2.03211836 14.7393513,1.37312114 12.2178081,1.39742239 C9.20356954,1.4262124 6.23693249,2.82918383 4.30281574,4.94145761 C2.4282599,6.99050172 1.2669401,9.72725567 1.35805178,12.677613 C1.44176751,15.3165428 2.78987411,18.0289181 4.75042741,19.8450107 C6.63151371,21.5854135 9.38563553,22.5845508 11.9646152,22.5053009 C14.433364,22.4288371 16.991336,21.2171026 18.6763513,19.4429566 C20.2863843,17.7486798 21.174133,15.2224335 21.0935645,12.9046052 C21.0168513,10.6938881 19.8857447,8.4207927 18.2414071,6.91666926 C16.6762218,5.48637828 14.3536609,4.72963431 12.2178081,4.80811032 C10.1960416,4.88465151 8.12730305,5.89864818 6.7547269,7.36275969 C5.45933604,8.74568646 4.74602132,10.7838182 4.82832081,12.6653849 C4.90322437,14.4351195 5.8549401,16.2424668 7.18526497,17.4379489 C8.43179543,18.5595985 10.2826685,19.1660462 11.9707523,19.0882668 C13.5488411,19.0152082 15.1663487,18.1845544 16.2247548,17.033186 C17.2088868,15.962925 17.7088208,14.3667819 17.6313995,12.9266621 C17.5608234,11.5938082 16.8169807,10.2351827 15.8053107,9.34818716 C14.8755467,8.53355359 13.4943944,8.13513695 12.2512472,8.21059465 C11.1198259,8.27761656 9.97510761,8.90712724 9.22984873,9.74621684 C8.55603147,10.5012582 8.21817868,11.6260035 8.31723706,12.627153 C8.37679797,13.2201345 8.71472944,14.068279 9.13063299,14.537355 C9.60177005,15.0694285 10.3236609,15.5771234 11.3287218,15.6718518 C12.0420365,15.7374806 12.8134959,15.4586354 13.3704731,15.0193555 C13.8398005,14.6483358 14.1660086,14.018206 14.1726178,13.4205037 C14.1753716,12.8980268 13.9951152,12.4192768 13.6740213,12.0544485 C13.4310569,11.7793181 13.0150746,11.6023214 12.6362294,11.5992257 C12.4101812,11.59791 12.2023868,11.6642354 12.0289756,11.7843486 C11.8841254,11.8858876 11.7723208,12.0290637 11.7467497,12.2026551 C11.7299122,12.3171186 11.7739731,12.4647062 11.8799553,12.5753001 C12.0472294,12.722578 12.135666,12.9499572 12.1056888,13.1599231 C12.0526584,13.4658557 11.8094579,13.6425428 11.4986711,13.6425428 C11.0992117,13.6425428 10.794798,13.3114576 10.6088766,13.0187591 C10.4351508,12.761816 10.3615061,12.3840632 10.3903817,12.0832385 C10.4416812,11.5470632 10.7705645,11.0383622 11.2361939,10.7016274 C11.6281,10.4183708 12.1410949,10.2748851 12.6275746,10.2643597 C13.3192523,10.2522091 14.1866228,10.612626 14.6539832,11.1334776 C15.2135569,11.7569517 15.5211178,12.4876917 15.5255239,13.4800185 C15.5313462,14.3756046 15.0035594,15.4166887 14.2685289,16.0184928 C13.4496254,16.6893311 12.2876761,17.1076376 11.2254934,17.0006812 C10.0555975,16.8828898 8.80757208,16.314287 8.09118883,15.3957153 C7.41784365,14.5298479 7.08266599,13.66073 6.96944518,12.7642152 C6.8135797,11.5315847 7.28920152,9.9160934 8.18473959,8.89559576 C9.15305685,7.79166899 10.6577371,6.9782737 12.1352726,6.88215221 C13.7253208,6.7789106 15.4887802,7.29782738 16.683067,8.33349395 C17.9595746,9.44190949 18.8848538,11.1541414 18.9832827,12.8275222 C19.087534,14.6090978 18.4613183,16.5782729 17.2487777,17.9070249 C15.9631431,19.317039 13.9844147,20.3215938 12.0595822,20.4170188 C10.0253843,20.5185578 7.79598071,19.7847994 6.2885467,18.4377053 C4.69818376,17.0155406 3.57164061,14.8548191 3.47462792,12.7439383 C3.37305178,10.523315 4.21681827,8.11075831 5.74384365,6.47499021 C7.3497066,4.75625734 9.50782589,3.65705151 12.1458944,3.47695914 C14.3243132,3.32906205 15.7510213,3.92134693 17.7245569,4.85145012 L18.888001,3.22249257 Z" mask="url(#zalf-b)"/></g><polygon fill="#FFF" points="24.724 20.381 24.724 18.593 34.648 6.363 25.451 6.363 25.451 4.467 37.466 4.467 37.466 6.318 27.488 18.485 37.466 18.485 37.466 20.381"/><path fill="#FFF" d="M46.7875368,16.4275045 C46.7875368,17.4685886 45.7512398,19.0200762 43.227651,19.0200762 C42.0557094,19.0200762 40.9745647,18.5766945 40.9745647,17.3352413 C40.9745647,15.9394674 42.0557094,15.4960083 43.3178185,15.2746657 C44.6020368,15.0534005 46.0436942,15.0310341 46.7875368,14.4983414 L46.7875368,16.4275045 Z M49.8961129,18.9090954 C49.648349,18.9984063 49.4687221,19.0200762 49.3111256,19.0200762 C48.7027703,19.0200762 48.7027703,18.6207309 48.7027703,17.7345866 L48.7027703,11.8390574 C48.7027703,9.15748427 46.4276536,8.69173614 44.3315343,8.69173614 C41.7405165,8.69173614 39.5101688,9.68948039 39.3972627,12.5264576 L41.3117881,12.5264576 C41.4026637,10.8423192 42.5966358,10.3545916 44.2186282,10.3545916 C45.436047,10.3545916 46.8096459,10.6205897 46.8096459,12.2604596 C46.8096459,13.6785999 45.0073185,13.5458718 42.8897195,13.944598 C40.9071358,14.3216543 38.9472906,14.8753203 38.9472906,17.4685886 C38.9472906,19.7518224 40.6814023,20.6818482 42.7996307,20.6818482 C44.4216231,20.6818482 45.8406206,20.1281822 46.8997348,18.9090954 C46.8997348,20.1505486 47.5315368,20.6818482 48.5224353,20.6818482 C49.1308693,20.6818482 49.5588109,20.5715639 49.8961129,20.3718138 L49.8961129,18.9090954 Z"/><polygon fill="#FFF" points="51.787 20.416 53.703 20.416 53.703 4.592 51.787 4.592"/><g transform="translate(55.47 4.35)"><mask id="zalf-d" fill="#fff"><use xlink:href="#zalf-c"/></mask><path fill="#FFF" d="M1.99437005,16.066097 L3.90747919,16.066097 L3.90747919,6.2708365 L6.16198173,6.2708365 L6.16198173,4.60836799 L3.90747919,4.60836799 L3.90747919,3.01253442 C3.90747919,2.01509975 4.4483269,1.72673526 5.37321269,1.72673526 C5.71051472,1.72673526 6.11658325,1.77100377 6.45451472,1.8823716 L6.45451472,0.242579085 C6.09392335,0.131211262 5.57628629,0.0648858807 5.21506548,0.0648858807 C3.11886751,0.0648858807 1.99437005,1.04041847 1.99437005,2.90186313 L1.99437005,4.60836799 L0.0323218274,4.60836799 L0.0323218274,6.2708365 L1.99437005,6.2708365 L1.99437005,16.066097 Z" mask="url(#zalf-d)"/></g></g></svg>